<svg xmlns="http://www.w3.org/2000/svg" xmlns:xlink="http://www.w3.org/1999/xlink" width="500" zoomAndPan="magnify" viewBox="0 0 375 374.999991" height="500" preserveAspectRatio="xMidYMid meet" version="1.0"><defs><clipPath id="b323046ae3"><path d="M 199.125 179.929688 L 206.179688 179.929688 L 206.179688 187.796875 L 199.125 187.796875 Z M 199.125 179.929688 " clip-rule="nonzero"/></clipPath><clipPath id="55d0e99330"><path d="M 168.75 185 L 189 185 L 189 193 L 168.75 193 Z M 168.75 185 " clip-rule="nonzero"/></clipPath><clipPath id="3d836e450a"><path d="M 199.125 179.929688 L 206.179688 179.929688 L 206.179688 187.796875 L 199.125 187.796875 Z M 199.125 179.929688 " clip-rule="nonzero"/></clipPath><clipPath id="7d59e653e1"><path d="M 168.75 185 L 189 185 L 189 193 L 168.75 193 Z M 168.75 185 " clip-rule="nonzero"/></clipPath><clipPath id="c5b54e8555"><path d="M 194.269531 194.898438 L 194.34375 194.898438 L 194.34375 194.929688 L 194.269531 194.929688 Z M 194.269531 194.898438 " clip-rule="nonzero"/></clipPath><clipPath id="8a4e675ca7"><path d="M 187 184 L 199 184 L 199 194.929688 L 187 194.929688 Z M 187 184 " clip-rule="nonzero"/></clipPath></defs><path fill="#1d1d1b" d="M 180.367188 190.96875 C 180.367188 190.96875 180.367188 190.964844 180.363281 190.960938 C 180.363281 190.964844 180.367188 190.96875 180.367188 190.96875 " fill-opacity="1" fill-rule="nonzero"/><g clip-path="url(#b323046ae3)"><path fill="#1d1d1b" d="M 199.175781 186.828125 C 199.175781 186.832031 199.175781 186.832031 199.175781 186.832031 C 199.191406 186.851562 199.203125 186.871094 199.226562 186.890625 C 199.292969 186.976562 199.316406 187.066406 199.339844 187.152344 C 199.386719 187.320312 199.371094 187.484375 199.320312 187.640625 C 199.3125 187.664062 199.300781 187.691406 199.289062 187.71875 C 199.289062 187.71875 199.289062 187.71875 199.289062 187.722656 C 199.292969 187.71875 199.292969 187.71875 199.296875 187.71875 C 199.363281 187.691406 199.425781 187.664062 199.488281 187.640625 C 199.683594 187.558594 199.882812 187.476562 200.078125 187.390625 C 200.578125 187.171875 201.074219 186.9375 201.566406 186.691406 C 202.074219 186.433594 202.582031 186.160156 203.070312 185.859375 C 203.5625 185.558594 204.042969 185.234375 204.496094 184.867188 C 204.722656 184.683594 204.945312 184.492188 205.15625 184.277344 C 205.367188 184.066406 205.566406 183.839844 205.742188 183.582031 C 205.828125 183.453125 205.910156 183.316406 205.976562 183.171875 C 206.046875 183.023438 206.101562 182.867188 206.140625 182.703125 C 206.175781 182.535156 206.1875 182.355469 206.171875 182.179688 C 206.167969 182.136719 206.160156 182.089844 206.152344 182.046875 L 206.144531 182.015625 L 206.136719 181.976562 L 206.121094 181.917969 C 206.09375 181.832031 206.0625 181.75 206.023438 181.667969 C 205.945312 181.511719 205.84375 181.371094 205.730469 181.25 C 205.617188 181.128906 205.492188 181.027344 205.363281 180.9375 C 205.105469 180.757812 204.832031 180.625 204.554688 180.519531 C 204 180.308594 203.429688 180.1875 202.863281 180.097656 C 202.296875 180.011719 201.730469 179.96875 201.160156 179.945312 C 200.59375 179.921875 200.027344 179.925781 199.460938 179.949219 L 199.460938 180.03125 C 200.019531 180.078125 200.582031 180.132812 201.136719 180.210938 C 201.691406 180.285156 202.246094 180.382812 202.785156 180.507812 C 203.054688 180.570312 203.320312 180.640625 203.582031 180.726562 C 203.84375 180.808594 204.097656 180.902344 204.339844 181.015625 C 204.582031 181.128906 204.808594 181.257812 205.003906 181.414062 C 205.199219 181.566406 205.355469 181.746094 205.433594 181.9375 C 205.457031 181.988281 205.472656 182.035156 205.480469 182.082031 L 205.492188 182.125 L 205.496094 182.160156 C 205.5 182.183594 205.5 182.210938 205.503906 182.234375 C 205.507812 182.335938 205.496094 182.441406 205.464844 182.542969 C 205.410156 182.753906 205.289062 182.96875 205.140625 183.167969 C 204.992188 183.367188 204.8125 183.558594 204.621094 183.738281 C 204.425781 183.914062 204.222656 184.085938 204.003906 184.246094 C 203.574219 184.570312 203.109375 184.863281 202.636719 185.140625 C 202.160156 185.414062 201.671875 185.675781 201.171875 185.917969 C 200.925781 186.039062 200.675781 186.160156 200.421875 186.277344 C 200.28125 186.34375 200.136719 186.40625 199.992188 186.472656 C 199.882812 186.519531 199.773438 186.570312 199.664062 186.617188 C 199.511719 186.683594 199.363281 186.75 199.210938 186.8125 C 199.210938 186.8125 199.210938 186.8125 199.207031 186.816406 C 199.195312 186.820312 199.183594 186.824219 199.175781 186.828125 " fill-opacity="1" fill-rule="nonzero"/></g><g clip-path="url(#55d0e99330)"><path fill="#1d1d1b" d="M 168.835938 189.824219 C 168.851562 190 168.902344 190.175781 168.976562 190.335938 C 169.050781 190.492188 169.152344 190.632812 169.265625 190.757812 C 169.488281 191.003906 169.753906 191.1875 170.023438 191.335938 C 170.292969 191.484375 170.570312 191.597656 170.851562 191.695312 C 171.128906 191.792969 171.414062 191.867188 171.699219 191.933594 C 172.265625 192.066406 172.835938 192.15625 173.410156 192.210938 C 173.695312 192.242188 173.980469 192.261719 174.265625 192.277344 C 174.550781 192.292969 174.835938 192.300781 175.125 192.304688 C 175.570312 192.308594 176.015625 192.304688 176.457031 192.285156 C 176.746094 192.273438 177.03125 192.257812 177.320312 192.238281 C 177.722656 192.214844 178.125 192.179688 178.53125 192.144531 C 179.203125 192.082031 179.875 192.003906 180.546875 191.925781 C 180.816406 191.890625 181.089844 191.859375 181.359375 191.824219 C 181.542969 191.800781 181.722656 191.777344 181.902344 191.753906 C 183.023438 191.609375 184.140625 191.449219 185.257812 191.277344 C 186.003906 191.164062 186.753906 191.042969 187.5 190.917969 C 187.71875 190.878906 187.917969 190.84375 188.160156 190.804688 L 188.160156 190.800781 L 188.171875 190.6875 L 187.941406 190.433594 C 187.792969 190.457031 187.636719 190.5 187.503906 190.535156 L 187.503906 190.53125 C 186.75 190.707031 185.980469 190.871094 185.214844 191.007812 C 184.109375 191.210938 182.992188 191.378906 181.871094 191.496094 C 181.832031 191.5 181.792969 191.503906 181.757812 191.507812 C 181.714844 191.511719 181.675781 191.515625 181.636719 191.519531 C 181.597656 191.523438 181.554688 191.527344 181.515625 191.53125 C 181.5 191.53125 181.480469 191.535156 181.460938 191.535156 C 181.4375 191.539062 181.414062 191.539062 181.390625 191.542969 C 181.363281 191.542969 181.335938 191.546875 181.3125 191.550781 C 181.269531 191.550781 181.269531 191.554688 181.25 191.554688 C 181.203125 191.558594 181.148438 191.5625 181.101562 191.566406 C 181.101562 191.566406 181.097656 191.566406 181.097656 191.566406 C 181.03125 191.574219 180.960938 191.578125 180.890625 191.585938 C 180.824219 191.589844 180.753906 191.589844 180.6875 191.59375 C 180.617188 191.597656 180.550781 191.605469 180.480469 191.605469 C 179.820312 191.667969 179.164062 191.679688 178.503906 191.6875 C 178.039062 191.695312 177.578125 191.691406 177.113281 191.691406 C 176.824219 191.691406 176.535156 191.691406 176.246094 191.667969 L 176.242188 191.667969 C 175.875 191.667969 175.511719 191.644531 175.148438 191.625 C 175.007812 191.617188 174.867188 191.609375 174.730469 191.597656 C 174.59375 191.589844 174.453125 191.582031 174.316406 191.570312 C 174.039062 191.542969 173.761719 191.519531 173.488281 191.488281 C 172.9375 191.425781 172.390625 191.347656 171.859375 191.230469 C 171.59375 191.171875 171.332031 191.105469 171.078125 191.023438 C 170.824219 190.941406 170.578125 190.84375 170.351562 190.726562 C 170.125 190.609375 169.917969 190.472656 169.757812 190.308594 C 169.601562 190.144531 169.496094 189.960938 169.46875 189.757812 C 169.4375 189.554688 169.488281 189.328125 169.585938 189.105469 C 169.683594 188.882812 169.828125 188.667969 169.996094 188.464844 C 170.160156 188.261719 170.347656 188.066406 170.546875 187.882812 C 170.746094 187.699219 170.957031 187.523438 171.175781 187.351562 C 171.609375 187.011719 172.070312 186.695312 172.539062 186.394531 C 173.011719 186.09375 173.496094 185.808594 173.984375 185.527344 L 173.949219 185.453125 C 173.421875 185.664062 172.90625 185.894531 172.398438 186.148438 C 171.890625 186.402344 171.394531 186.683594 170.917969 187 C 170.441406 187.320312 169.980469 187.671875 169.574219 188.109375 C 169.375 188.328125 169.1875 188.570312 169.042969 188.851562 C 168.972656 188.992188 168.910156 189.148438 168.871094 189.3125 C 168.835938 189.472656 168.820312 189.648438 168.835938 189.824219 " fill-opacity="1" fill-rule="nonzero"/></g><g clip-path="url(#3d836e450a)"><path fill="#1d1d1b" d="M 199.175781 186.828125 C 199.175781 186.832031 199.175781 186.832031 199.175781 186.832031 C 199.191406 186.851562 199.203125 186.871094 199.226562 186.890625 C 199.292969 186.976562 199.316406 187.066406 199.339844 187.152344 C 199.386719 187.320312 199.371094 187.484375 199.320312 187.640625 C 199.3125 187.664062 199.300781 187.691406 199.289062 187.71875 C 199.289062 187.71875 199.289062 187.71875 199.289062 187.722656 C 199.292969 187.71875 199.292969 187.71875 199.296875 187.71875 C 199.363281 187.691406 199.425781 187.664062 199.488281 187.640625 C 199.683594 187.558594 199.882812 187.476562 200.078125 187.390625 C 200.578125 187.171875 201.074219 186.9375 201.566406 186.691406 C 202.074219 186.433594 202.582031 186.160156 203.070312 185.859375 C 203.5625 185.558594 204.042969 185.234375 204.496094 184.867188 C 204.722656 184.683594 204.945312 184.492188 205.15625 184.277344 C 205.367188 184.066406 205.566406 183.839844 205.742188 183.582031 C 205.828125 183.453125 205.910156 183.316406 205.976562 183.171875 C 206.046875 183.023438 206.101562 182.867188 206.140625 182.703125 C 206.175781 182.535156 206.1875 182.355469 206.171875 182.179688 C 206.167969 182.136719 206.160156 182.089844 206.152344 182.046875 L 206.144531 182.015625 L 206.136719 181.976562 L 206.121094 181.917969 C 206.09375 181.832031 206.0625 181.75 206.023438 181.667969 C 205.945312 181.511719 205.84375 181.371094 205.730469 181.25 C 205.617188 181.128906 205.492188 181.027344 205.363281 180.9375 C 205.105469 180.757812 204.832031 180.625 204.554688 180.519531 C 204 180.308594 203.429688 180.1875 202.863281 180.097656 C 202.296875 180.011719 201.730469 179.96875 201.160156 179.945312 C 200.59375 179.921875 200.027344 179.925781 199.460938 179.949219 L 199.460938 180.03125 C 200.019531 180.078125 200.582031 180.132812 201.136719 180.210938 C 201.691406 180.285156 202.246094 180.382812 202.785156 180.507812 C 203.054688 180.570312 203.320312 180.640625 203.582031 180.726562 C 203.84375 180.808594 204.097656 180.902344 204.339844 181.015625 C 204.582031 181.128906 204.808594 181.257812 205.003906 181.414062 C 205.199219 181.566406 205.355469 181.746094 205.433594 181.9375 C 205.457031 181.988281 205.472656 182.035156 205.480469 182.082031 L 205.492188 182.125 L 205.496094 182.160156 C 205.5 182.183594 205.5 182.210938 205.503906 182.234375 C 205.507812 182.335938 205.496094 182.441406 205.464844 182.542969 C 205.410156 182.753906 205.289062 182.96875 205.140625 183.167969 C 204.992188 183.367188 204.8125 183.558594 204.621094 183.738281 C 204.425781 183.914062 204.222656 184.085938 204.003906 184.246094 C 203.574219 184.570312 203.109375 184.863281 202.636719 185.140625 C 202.160156 185.414062 201.671875 185.675781 201.171875 185.917969 C 200.925781 186.039062 200.675781 186.160156 200.421875 186.277344 C 200.28125 186.34375 200.136719 186.40625 199.992188 186.472656 C 199.882812 186.519531 199.773438 186.570312 199.664062 186.617188 C 199.511719 186.683594 199.363281 186.75 199.210938 186.8125 C 199.210938 186.8125 199.210938 186.8125 199.207031 186.816406 C 199.195312 186.820312 199.183594 186.824219 199.175781 186.828125 " fill-opacity="1" fill-rule="nonzero"/></g><g clip-path="url(#7d59e653e1)"><path fill="#1d1d1b" d="M 168.835938 189.824219 C 168.851562 190 168.902344 190.175781 168.976562 190.335938 C 169.050781 190.492188 169.152344 190.632812 169.265625 190.757812 C 169.488281 191.003906 169.753906 191.1875 170.023438 191.335938 C 170.292969 191.484375 170.570312 191.597656 170.851562 191.695312 C 171.128906 191.792969 171.414062 191.867188 171.699219 191.933594 C 172.265625 192.066406 172.835938 192.15625 173.410156 192.210938 C 173.695312 192.242188 173.980469 192.261719 174.265625 192.277344 C 174.550781 192.292969 174.835938 192.300781 175.125 192.304688 C 175.570312 192.308594 176.015625 192.304688 176.457031 192.285156 C 176.746094 192.273438 177.03125 192.257812 177.320312 192.238281 C 177.722656 192.214844 178.125 192.179688 178.53125 192.144531 C 179.203125 192.082031 179.875 192.003906 180.546875 191.925781 C 180.816406 191.890625 181.089844 191.859375 181.359375 191.824219 C 181.542969 191.800781 181.722656 191.777344 181.902344 191.753906 C 183.023438 191.609375 184.140625 191.449219 185.257812 191.277344 C 186.003906 191.164062 186.753906 191.042969 187.5 190.917969 C 187.71875 190.878906 187.917969 190.84375 188.160156 190.804688 L 188.160156 190.800781 L 188.171875 190.6875 L 187.941406 190.433594 C 187.792969 190.457031 187.644531 190.5 187.492188 190.535156 C 186.734375 190.710938 185.976562 190.871094 185.210938 191.011719 C 184.105469 191.214844 182.988281 191.378906 181.871094 191.496094 C 181.792969 191.503906 181.714844 191.511719 181.636719 191.519531 C 181.59375 191.523438 181.554688 191.527344 181.515625 191.53125 C 181.496094 191.53125 181.480469 191.535156 181.460938 191.535156 C 181.433594 191.539062 181.410156 191.539062 181.382812 191.542969 C 181.355469 191.546875 181.328125 191.546875 181.300781 191.550781 C 181.28125 191.550781 181.261719 191.554688 181.242188 191.554688 C 181.195312 191.558594 181.148438 191.5625 181.097656 191.566406 C 181.027344 191.574219 180.960938 191.578125 180.890625 191.585938 C 180.824219 191.589844 180.753906 191.589844 180.6875 191.59375 C 180.617188 191.597656 180.550781 191.605469 180.480469 191.605469 C 179.820312 191.667969 179.164062 191.679688 178.503906 191.6875 C 178.039062 191.695312 177.578125 191.691406 177.113281 191.691406 C 176.824219 191.691406 176.535156 191.691406 176.246094 191.667969 L 176.242188 191.667969 C 175.875 191.667969 175.511719 191.644531 175.148438 191.625 C 175.007812 191.617188 174.867188 191.609375 174.730469 191.597656 C 174.59375 191.589844 174.453125 191.582031 174.316406 191.570312 C 174.039062 191.542969 173.761719 191.519531 173.488281 191.488281 C 172.9375 191.425781 172.390625 191.347656 171.859375 191.230469 C 171.59375 191.171875 171.332031 191.105469 171.078125 191.023438 C 170.824219 190.941406 170.578125 190.84375 170.351562 190.726562 C 170.125 190.609375 169.917969 190.472656 169.757812 190.308594 C 169.601562 190.144531 169.496094 189.960938 169.46875 189.757812 C 169.4375 189.554688 169.488281 189.328125 169.585938 189.105469 C 169.683594 188.882812 169.828125 188.667969 169.996094 188.464844 C 170.160156 188.261719 170.347656 188.066406 170.546875 187.882812 C 170.746094 187.699219 170.957031 187.523438 171.175781 187.351562 C 171.609375 187.011719 172.070312 186.695312 172.539062 186.394531 C 173.011719 186.09375 173.496094 185.808594 173.984375 185.527344 L 173.949219 185.453125 C 173.421875 185.664062 172.90625 185.894531 172.398438 186.148438 C 171.890625 186.402344 171.394531 186.683594 170.917969 187 C 170.441406 187.320312 169.980469 187.671875 169.574219 188.109375 C 169.375 188.328125 169.1875 188.570312 169.042969 188.851562 C 168.972656 188.992188 168.910156 189.148438 168.871094 189.3125 C 168.835938 189.472656 168.820312 189.648438 168.835938 189.824219 " fill-opacity="1" fill-rule="nonzero"/></g><g clip-path="url(#c5b54e8555)"><path fill="#1d1d1b" d="M 194.277344 194.925781 C 194.277344 194.929688 194.277344 194.929688 194.277344 194.929688 C 194.277344 194.929688 194.277344 194.929688 194.277344 194.933594 L 194.285156 194.929688 C 194.28125 194.929688 194.28125 194.925781 194.277344 194.925781 " fill-opacity="1" fill-rule="nonzero"/></g><g clip-path="url(#8a4e675ca7)"><path fill="#1d1d1b" d="M 187.648438 189.117188 L 188.171875 189.703125 L 188.3125 189.863281 L 188.65625 190.25 L 188.765625 190.375 C 188.796875 190.410156 188.84375 190.542969 188.835938 190.589844 L 188.832031 190.679688 C 188.832031 190.679688 188.835938 190.679688 188.835938 190.679688 L 188.835938 190.683594 L 188.773438 191.351562 L 188.683594 192.257812 C 188.671875 192.378906 188.75 192.449219 188.859375 192.414062 C 188.96875 192.378906 189.089844 192.253906 189.128906 192.140625 L 189.429688 191.230469 L 189.628906 190.621094 L 190.703125 190.316406 L 190.78125 190.292969 L 193.835938 189.429688 L 193.824219 189.546875 L 193.835938 189.550781 L 193.800781 190.230469 L 193.800781 190.234375 L 193.484375 194.3125 C 193.476562 194.398438 193.503906 194.464844 193.570312 194.464844 L 193.574219 194.464844 C 193.597656 194.464844 193.628906 194.460938 193.65625 194.449219 L 194.144531 194.292969 C 194.261719 194.257812 194.378906 194.136719 194.410156 194.019531 L 194.703125 192.941406 C 194.734375 192.945312 194.761719 192.929688 194.789062 192.917969 L 195.003906 192.847656 L 195.0625 192.832031 C 195.175781 192.792969 195.253906 192.699219 195.214844 192.585938 L 195.1875 192.503906 C 195.175781 192.464844 195.15625 192.433594 195.125 192.40625 C 195.066406 192.347656 194.980469 192.3125 194.902344 192.339844 L 194.851562 192.355469 L 195.117188 191.414062 C 195.144531 191.417969 195.183594 191.433594 195.210938 191.421875 L 195.324219 191.386719 L 195.476562 191.335938 C 195.589844 191.300781 195.65625 191.175781 195.617188 191.0625 L 195.589844 190.980469 C 195.566406 190.90625 195.5 190.839844 195.425781 190.816406 C 195.386719 190.800781 195.34375 190.796875 195.304688 190.808594 L 195.261719 190.824219 L 195.554688 189.761719 L 195.566406 189.714844 L 195.773438 188.96875 L 195.800781 188.863281 L 197.335938 188.449219 L 197.351562 188.449219 C 197.703125 188.347656 198.335938 187.976562 198.59375 187.640625 C 198.683594 187.523438 198.726562 187.414062 198.703125 187.320312 C 198.679688 187.230469 198.597656 187.164062 198.476562 187.121094 C 198.101562 186.96875 197.355469 187.011719 196.996094 187.113281 C 196.988281 187.113281 196.433594 187.316406 195.621094 187.609375 C 195.59375 187.621094 195.566406 187.628906 195.539062 187.640625 C 195.5 187.652344 195.457031 187.667969 195.414062 187.683594 L 195.359375 187.640625 L 195.320312 187.609375 L 194.800781 187.191406 L 193.808594 186.394531 L 193.851562 186.382812 C 193.964844 186.34375 194.03125 186.226562 193.996094 186.113281 L 193.96875 186.03125 C 193.929688 185.921875 193.8125 185.886719 193.699219 185.925781 L 193.4375 186.011719 C 193.40625 186.019531 193.371094 186.015625 193.351562 186.035156 L 192.570312 185.394531 L 192.617188 185.378906 C 192.730469 185.34375 192.800781 185.230469 192.765625 185.117188 L 192.738281 185.035156 C 192.699219 184.921875 192.570312 184.851562 192.457031 184.886719 L 192.183594 184.976562 C 192.152344 184.984375 192.125 185.003906 192.105469 185.023438 L 191.226562 184.316406 C 191.132812 184.242188 190.960938 184.203125 190.847656 184.238281 L 190.359375 184.398438 C 190.246094 184.433594 190.21875 184.546875 190.296875 184.636719 L 192.859375 187.640625 L 193.375 188.242188 L 193.496094 188.386719 C 193.433594 188.40625 193.375 188.429688 193.3125 188.449219 C 191.667969 189.046875 189.96875 189.667969 189.378906 189.878906 L 188.878906 189.523438 L 188.3125 189.117188 L 188.078125 188.953125 C 187.980469 188.882812 187.808594 188.851562 187.699219 188.886719 C 187.589844 188.921875 187.570312 189.023438 187.648438 189.117188 " fill-opacity="1" fill-rule="nonzero"/><path fill="#1d1d1b" d="M 187.648438 189.117188 L 188.171875 189.703125 L 188.3125 189.863281 L 188.65625 190.25 L 188.765625 190.375 C 188.796875 190.410156 188.84375 190.542969 188.839844 190.589844 L 188.835938 190.679688 L 188.835938 190.683594 L 188.773438 191.351562 L 188.683594 192.257812 C 188.671875 192.378906 188.75 192.449219 188.859375 192.414062 C 188.96875 192.378906 189.089844 192.253906 189.128906 192.140625 L 189.429688 191.230469 L 189.628906 190.621094 L 190.703125 190.316406 L 190.78125 190.292969 L 193.835938 189.429688 L 193.824219 189.546875 L 193.835938 189.550781 L 193.800781 190.230469 L 193.800781 190.234375 L 193.484375 194.3125 C 193.476562 194.398438 193.503906 194.464844 193.570312 194.464844 L 193.574219 194.464844 C 193.597656 194.464844 193.628906 194.460938 193.65625 194.449219 L 194.144531 194.292969 C 194.261719 194.257812 194.378906 194.136719 194.410156 194.019531 L 194.703125 192.941406 C 194.734375 192.945312 194.761719 192.929688 194.789062 192.917969 L 195.003906 192.847656 L 195.0625 192.832031 C 195.175781 192.792969 195.253906 192.699219 195.214844 192.585938 L 195.1875 192.503906 C 195.175781 192.464844 195.15625 192.433594 195.125 192.40625 C 195.066406 192.347656 194.980469 192.3125 194.902344 192.339844 L 194.851562 192.355469 L 195.117188 191.414062 C 195.144531 191.417969 195.183594 191.433594 195.210938 191.421875 L 195.324219 191.386719 L 195.476562 191.335938 C 195.589844 191.300781 195.65625 191.175781 195.617188 191.0625 L 195.589844 190.980469 C 195.566406 190.90625 195.5 190.839844 195.425781 190.816406 C 195.386719 190.800781 195.34375 190.796875 195.304688 190.808594 L 195.261719 190.824219 L 195.554688 189.761719 L 195.566406 189.714844 L 195.773438 188.96875 L 195.800781 188.863281 L 197.335938 188.449219 L 197.351562 188.449219 C 197.703125 188.347656 198.335938 187.976562 198.59375 187.640625 C 198.683594 187.523438 198.726562 187.414062 198.703125 187.320312 C 198.679688 187.230469 198.597656 187.164062 198.476562 187.121094 C 198.101562 186.96875 197.355469 187.011719 196.996094 187.113281 C 196.988281 187.113281 196.433594 187.316406 195.621094 187.609375 C 195.59375 187.621094 195.566406 187.628906 195.539062 187.640625 C 195.5 187.652344 195.457031 187.667969 195.414062 187.683594 L 195.359375 187.640625 L 195.320312 187.609375 L 194.800781 187.191406 L 193.808594 186.394531 L 193.851562 186.382812 C 193.964844 186.34375 194.03125 186.226562 193.996094 186.113281 L 193.96875 186.03125 C 193.929688 185.921875 193.8125 185.886719 193.699219 185.925781 L 193.4375 186.011719 C 193.40625 186.019531 193.371094 186.015625 193.351562 186.035156 L 192.570312 185.394531 L 192.617188 185.378906 C 192.730469 185.34375 192.800781 185.230469 192.765625 185.117188 L 192.738281 185.035156 C 192.699219 184.921875 192.570312 184.851562 192.457031 184.886719 L 192.183594 184.976562 C 192.152344 184.984375 192.125 185.003906 192.105469 185.023438 L 191.226562 184.316406 C 191.132812 184.242188 190.960938 184.203125 190.847656 184.238281 L 190.359375 184.398438 C 190.246094 184.433594 190.21875 184.546875 190.296875 184.636719 L 192.859375 187.640625 L 193.375 188.242188 L 193.496094 188.386719 C 193.433594 188.40625 193.375 188.429688 193.3125 188.449219 C 191.667969 189.046875 189.96875 189.667969 189.378906 189.878906 L 188.878906 189.523438 L 188.3125 189.117188 L 188.078125 188.953125 C 187.980469 188.882812 187.808594 188.851562 187.699219 188.886719 C 187.589844 188.921875 187.570312 189.023438 187.648438 189.117188 " fill-opacity="1" fill-rule="nonzero"/></g><path fill="#43bef0" d="M 374.988281 187.5 C 374.988281 291.050781 291.046875 374.992188 187.492188 374.992188 C 83.945312 374.992188 -0.00390625 291.050781 -0.00390625 187.5 C -0.00390625 83.949219 83.945312 0.0078125 187.492188 0.0078125 C 291.046875 0.0078125 374.988281 83.949219 374.988281 187.5 " fill-opacity="1" fill-rule="nonzero"/><path fill="#4071c0" d="M 39.949219 169.9375 C 52.332031 169.296875 55.410156 186.699219 65.546875 189.507812 C 70.363281 190.839844 78.167969 188.847656 72.210938 199.621094 L 70.273438 203.492188 C 70.617188 203.707031 70.914062 203.648438 70.671875 204.320312 C 63.054688 206.582031 65.644531 224.160156 69.453125 228.386719 C 74.300781 233.761719 75.019531 242.011719 81.515625 245.675781 C 86.445312 248.457031 91.703125 252.519531 92.210938 258.765625 C 93.054688 269.179688 93.734375 281.429688 93.285156 291.886719 C 92.8125 302.90625 97.921875 307.382812 100.867188 316.785156 C 105.703125 332.21875 109.902344 334.589844 120.386719 343.5 L 119.953125 343.5 C 121.820312 343.902344 123.6875 343.902344 125.546875 343.5 C 125.679688 343.394531 114.617188 333.667969 118.203125 327.394531 C 121.5625 321.519531 110.117188 325.507812 115.4375 317.695312 L 114.792969 316.40625 C 116.257812 312.898438 111.664062 311.609375 113.0625 308.445312 C 113.753906 306.886719 116.304688 307.46875 117.460938 305.640625 C 119.304688 302.726562 123.375 303.785156 124.90625 301.144531 C 126.730469 298.003906 121.640625 296.425781 121.746094 293.875 C 121.816406 292.148438 131.050781 294.695312 132.859375 290.59375 C 134.8125 286.160156 135.207031 284.476562 137.980469 281.082031 C 142.367188 275.734375 136.800781 266.183594 147.054688 264.78125 C 154.976562 263.699219 157.882812 257.546875 157.59375 249.949219 C 157.28125 241.808594 169.402344 229.230469 165.515625 222.777344 C 161.976562 216.902344 148.054688 211.035156 141.503906 210.382812 C 130.1875 209.257812 134.585938 197.488281 125.761719 194.074219 C 119.339844 191.59375 119.441406 192.429688 114.367188 187.957031 C 111.03125 185.007812 108.140625 180.824219 103.191406 181.558594 C 97.199219 182.445312 96.742188 179.457031 91.640625 178.855469 C 88.5 178.484375 89.5625 183.710938 87.296875 183.242188 C 87.410156 182.070312 87.757812 180.558594 86.441406 180.011719 C 86.152344 178.097656 88.050781 178.015625 87.867188 176.417969 C 81.441406 179.9375 78.160156 180.644531 74.144531 186.933594 L 72.855469 185.425781 C 71.328125 180.5 60.53125 188.804688 61.074219 177.898438 C 61.613281 167.144531 59.292969 170.738281 51.171875 168.183594 C 50.746094 165.574219 60.015625 155.992188 56.6875 153.886719 C 52.5625 151.269531 48.929688 156.386719 48.121094 159.402344 L 48.121094 159.832031 C 35.472656 172.070312 31.621094 143.277344 42.054688 136.292969 C 46.066406 133.609375 68.699219 127.765625 68.726562 135.9375 C 68.792969 153.992188 78.585938 126.667969 84.414062 122.199219 C 95.21875 113.910156 101.339844 100.019531 115.621094 95.339844 C 114.585938 100.496094 123.222656 98.988281 124.574219 96.738281 C 125.175781 95.738281 120.929688 92.929688 122.59375 89.738281 C 124.933594 85.257812 116.726562 86.976562 114.828125 86.894531 C 114.222656 84.121094 136.765625 82.339844 140.117188 79.375 C 144.222656 75.746094 135.9375 71.539062 135.4375 68.429688 C 134.28125 61.175781 135.140625 61.746094 128.238281 63.105469 C 125.285156 63.6875 122.792969 57.230469 119.90625 55.996094 C 113.949219 53.453125 113.691406 59.121094 110.179688 62.066406 C 104.851562 66.53125 101.601562 75.640625 94.191406 80.445312 C 91.015625 73.710938 96.960938 68.535156 84.039062 67.785156 C 80.179688 67.558594 77.957031 61.042969 81.375 58.417969 C 87.546875 53.683594 96.726562 51.453125 103.582031 47.355469 C 103.207031 47.582031 119.84375 40.59375 116.234375 40.011719 C 115.5625 39.902344 104.980469 47.550781 107.019531 42.023438 C 106.542969 41.921875 106.15625 41.496094 105.578125 41.511719 C 105.921875 39.769531 104.386719 39.464844 103 39.570312 C 102.390625 38.535156 102.960938 37.480469 103.804688 36.859375 C 99.046875 34.890625 97.5 43.582031 91.96875 43.441406 C 84.765625 43.25 77.085938 42.335938 70.019531 42.96875 C 69.269531 43.035156 68.597656 43.054688 67.960938 43.046875 C 39.878906 66.3125 18.699219 97.613281 7.929688 133.417969 C 12.128906 139.21875 17.105469 153.015625 17.683594 158.054688 C 18.289062 163.34375 35.683594 170.15625 39.949219 169.9375 " fill-opacity="1" fill-rule="nonzero"/><path fill="#4071c0" d="M 8.730469 150.125 C 8.902344 149.488281 7.574219 142.875 6.699219 137.699219 C 5.90625 140.570312 5.183594 143.476562 4.53125 146.402344 C 5.707031 148.316406 7.085938 149.757812 8.730469 150.125 " fill-opacity="1" fill-rule="nonzero"/><path fill="#4071c0" d="M 336.960938 254.894531 C 336.621094 263.769531 333.125 265.558594 338.894531 272.316406 L 338.894531 272.53125 C 344.253906 278.398438 350.871094 248.617188 350.980469 246.742188 C 352.449219 249.226562 352.0625 237.660156 351.546875 236.214844 C 347.285156 236.5 337.101562 251.226562 336.960938 254.894531 " fill-opacity="1" fill-rule="nonzero"/><path fill="#4071c0" d="M 292.546875 35.648438 C 279.121094 36.257812 265.617188 46.734375 256.28125 55.820312 C 247.675781 64.195312 265.207031 62.976562 265.769531 63.144531 C 269.46875 64.265625 269.136719 76.347656 274.164062 70.632812 C 275.902344 68.660156 283.054688 43.445312 288.523438 49.332031 C 290.566406 51.527344 277.128906 61.375 287.953125 61.355469 C 288.90625 61.355469 298.539062 57.976562 298.046875 61.039062 C 297.625 63.683594 291.691406 60.863281 290.6875 66.246094 C 286.726562 66.742188 284.734375 63.382812 284.695312 69.71875 C 284.664062 75.109375 279.625 71.652344 276.742188 72.300781 C 267.191406 74.457031 267.035156 73.847656 265.519531 64.804688 C 261.136719 64.066406 261.621094 70.804688 261.941406 72.917969 C 262.234375 74.835938 255.546875 75.71875 254.585938 76.609375 C 251.003906 79.9375 247.292969 83.539062 242.816406 85.6875 C 240.910156 86.601562 237.253906 84.886719 235.742188 86.851562 C 234.011719 89.109375 247.066406 96.476562 240.183594 99.21875 C 236.296875 100.769531 232.332031 96.769531 228.347656 99.605469 C 225.890625 101.347656 224.777344 110.972656 225.554688 113.375 C 226.890625 117.53125 231.292969 112.707031 232.4375 117.464844 L 233.511719 116.605469 C 236.726562 121.261719 247.90625 108.027344 249.4375 106.492188 C 250.78125 105.144531 249.882812 100.347656 252.828125 100.804688 C 254.402344 101.523438 255.972656 101.511719 257.53125 100.773438 C 262.550781 96.328125 271.855469 103.6875 275.292969 107.945312 C 279.402344 113.015625 270.929688 111.1875 270.488281 112.949219 C 268.402344 121.242188 283.960938 107.382812 281.230469 107.539062 C 281.222656 107.476562 264.296875 93.96875 269.816406 94.289062 C 281.628906 94.976562 283.503906 116.332031 289.859375 116.824219 C 291.785156 116.195312 292.148438 114.984375 290.960938 113.195312 C 294.164062 113.699219 290.125 108.679688 291.578125 106.917969 C 294.46875 103.421875 299.875 108.878906 302.113281 106.042969 C 304.140625 103.472656 298.425781 100.570312 302.894531 95.539062 C 309.132812 88.519531 307.589844 97.90625 312.113281 96.152344 C 319.9375 93.121094 339.148438 104.332031 317.171875 105.421875 C 310.734375 105.742188 306.054688 107.125 300.050781 108.105469 C 295.339844 108.875 305.847656 116.28125 310.070312 115.792969 C 323.816406 114.207031 318.828125 131.289062 307.667969 130.457031 C 292.160156 129.304688 272.980469 134.347656 266.417969 117.464844 C 263.871094 110.910156 238.355469 119.667969 234.15625 119.613281 C 228.476562 119.546875 219.136719 135.15625 216.304688 139.1875 L 215.445312 140.261719 C 212.070312 144.566406 207.242188 148.273438 206.019531 154.230469 C 205.335938 157.5625 203.023438 175.226562 205.949219 178.632812 C 208.773438 181.921875 221.863281 196.121094 224.480469 195.964844 C 234.238281 195.382812 248.144531 189.339844 255.585938 196.105469 C 257.796875 198.113281 260.675781 196.894531 262.382812 199.574219 C 265.867188 205.050781 260.386719 209.660156 265.34375 215.378906 C 272.285156 223.390625 271.347656 231.621094 269.691406 241.347656 C 267.683594 253.152344 274.910156 259.246094 275.003906 269.746094 C 275.035156 272.328125 280.917969 290.457031 283.621094 291.457031 L 284.695312 293.824219 C 290.796875 293.839844 298.511719 290.746094 303.195312 287.320312 C 310.746094 281.792969 308.246094 276.148438 312.234375 270.816406 C 312.195312 270.675781 312.207031 270.542969 312.261719 270.414062 C 322.710938 264.609375 314.113281 255.246094 326.875 248.078125 C 334.089844 244.027344 329.636719 227.578125 328.570312 221.992188 C 326.296875 210.335938 349.132812 198.117188 352.238281 186.355469 C 357.945312 164.730469 336.289062 192.628906 332.40625 174.707031 C 327.300781 171.902344 306.402344 136.960938 312.175781 132.980469 C 314.867188 136.128906 317.683594 132.734375 319.324219 135.742188 C 321.542969 139.8125 324.132812 143.015625 326.683594 146.855469 C 329.855469 151.621094 338.570312 165.890625 338.460938 171.175781 C 338.183594 184.277344 362.179688 163.96875 364.84375 161.074219 C 371.171875 154.195312 369.652344 150.621094 364.0625 144.980469 C 362.109375 143.003906 358.25 148.734375 354.800781 148.367188 C 350.308594 147.886719 352.257812 143.964844 349.003906 142.253906 C 345.964844 140.652344 342.070312 136.191406 345.652344 132.464844 C 348.222656 129.796875 354.277344 139.636719 355.292969 140.421875 C 360.125 144.175781 365.085938 145.011719 370.179688 145.136719 C 361.414062 107.171875 341.117188 73.632812 313.179688 48.378906 C 310.6875 49.246094 305.683594 50.238281 307.550781 46.96875 C 307.753906 46.605469 309.015625 46.316406 310.480469 45.980469 C 306.554688 42.566406 302.480469 39.320312 298.277344 36.234375 C 296.089844 35.8125 294.082031 35.582031 292.546875 35.648438 " fill-opacity="1" fill-rule="nonzero"/><path fill="#4071c0" d="M 234.523438 72.367188 C 225.402344 69.261719 227.863281 79.886719 227.863281 81.765625 L 228.835938 81.765625 C 229.398438 81.300781 238.734375 73.800781 234.523438 72.367188 " fill-opacity="1" fill-rule="nonzero"/><path fill="#4071c0" d="M 210.15625 50.636719 C 210.628906 51.632812 216.089844 53.894531 216.089844 52.730469 L 217.058594 52.730469 C 223.625 47.339844 223.1875 52.101562 223.671875 44.824219 C 223.945312 40.726562 209.554688 49.378906 210.15625 50.636719 " fill-opacity="1" fill-rule="nonzero"/><path fill="#4071c0" d="M 236.089844 84.023438 C 237.566406 81.878906 244.628906 82.75 246.382812 81.25 C 247.359375 80.410156 240.90625 65.859375 240.429688 64.980469 C 241.707031 64.324219 241.917969 63.421875 241.046875 62.28125 C 237.144531 59.238281 235.394531 80.492188 235.125 83.375 L 236.089844 84.023438 " fill-opacity="1" fill-rule="nonzero"/><path fill="#4071c0" d="M 216.886719 36.914062 C 216.554688 35.765625 216.164062 34.640625 215.71875 33.535156 C 216.964844 30.1875 222.207031 34.675781 222.566406 28.078125 C 222.984375 27.90625 233.351562 17.203125 235.664062 16.367188 C 231.433594 15.941406 197.789062 14.355469 194.875 14.71875 C 187.605469 15.628906 155.371094 17.589844 151.214844 24.410156 C 151.484375 23.96875 173.484375 35.496094 165.464844 37.75 C 165.527344 36.5 155.183594 65.914062 165.117188 60.796875 L 166.246094 60.472656 C 168.941406 66.761719 174.949219 57.410156 176.53125 56.082031 C 182.464844 51.089844 189.902344 50.328125 195.289062 45.957031 C 200.710938 41.5625 214.398438 42.945312 216.886719 36.914062 " fill-opacity="1" fill-rule="nonzero"/><path fill="#4071c0" d="M 235.664062 16.367188 C 235.945312 16.394531 236.09375 16.414062 236.101562 16.433594 C 236.054688 16.292969 235.898438 16.28125 235.664062 16.367188 " fill-opacity="1" fill-rule="nonzero"/><path fill="#4071c0" d="M 137.257812 20.671875 C 136.125 22.628906 127.105469 24 124.371094 24.511719 C 129.277344 23.65625 135.929688 26.609375 141.246094 23.691406 C 149.03125 19.414062 161.222656 18.023438 170.128906 15.941406 C 165.046875 16.257812 136.082031 12.738281 131.910156 16.152344 C 129.71875 17.9375 138.824219 17.984375 137.257812 20.671875 " fill-opacity="1" fill-rule="nonzero"/><path fill="#4071c0" d="M 123.511719 24.71875 C 123.121094 24.832031 122.738281 24.96875 122.375 25.148438 L 123.511719 24.71875 " fill-opacity="1" fill-rule="nonzero"/><path fill="#4071c0" d="M 170.125 15.945312 C 170.578125 15.914062 170.859375 15.859375 170.898438 15.761719 C 170.648438 15.824219 170.382812 15.882812 170.125 15.945312 " fill-opacity="1" fill-rule="nonzero"/><path fill="#4071c0" d="M 123.515625 24.71875 C 123.789062 24.640625 124.066406 24.566406 124.351562 24.515625 C 124.035156 24.574219 123.785156 24.625 123.664062 24.660156 L 123.515625 24.71875 " fill-opacity="1" fill-rule="nonzero"/><path fill="#4071c0" d="M 134.070312 20.792969 L 134.308594 20.066406 C 133.0625 19.058594 118.496094 16.585938 118.179688 19.417969 C 117.683594 23.625 132.050781 22.003906 134.070312 20.792969 " fill-opacity="1" fill-rule="nonzero"/><path fill="#4071c0" d="M 135.460938 34.269531 C 127.773438 31.851562 123.9375 33.777344 117.695312 35.140625 C 117.523438 33.925781 117.769531 32.839844 118.433594 31.882812 C 118.199219 30.328125 109.980469 33.753906 112.226562 36.738281 C 114.746094 40.085938 122.316406 37.652344 125.761719 37.964844 C 132.394531 38.585938 132.566406 48.53125 125.277344 48.53125 L 123.585938 48.046875 C 122.777344 47.707031 115.609375 48.472656 118.132812 50.234375 C 119.515625 51.199219 133.882812 56.816406 134.070312 56.6875 C 133.550781 57.050781 138.507812 49.402344 138.632812 50.144531 C 136.792969 39.519531 143.585938 53.828125 145.957031 45.886719 C 146.015625 45.6875 136.671875 34.652344 135.460938 34.269531 " fill-opacity="1" fill-rule="nonzero"/><path fill="#4071c0" d="M 130.035156 30.144531 C 128.632812 31.652344 129.0625 32.484375 131.328125 32.648438 L 131.726562 33.375 C 131.679688 33.375 137.542969 32.046875 135.601562 30.96875 C 133.726562 30.832031 131.875 30.554688 130.035156 30.144531 " fill-opacity="1" fill-rule="nonzero"/><path fill="#4071c0" d="M 114.148438 30.792969 L 114.433594 30.363281 C 112.820312 30.453125 101.941406 30.460938 105.457031 33.433594 C 106.726562 34.507812 113.675781 32.195312 114.148438 30.792969 " fill-opacity="1" fill-rule="nonzero"/><path fill="#4071c0" d="M 114.46875 30.308594 L 114.433594 30.363281 C 114.671875 30.351562 114.710938 30.335938 114.46875 30.308594 " fill-opacity="1" fill-rule="nonzero"/><path fill="#4071c0" d="M 127.941406 30.550781 C 128.480469 29.167969 133.5625 29.996094 132.382812 27.160156 C 131.246094 24.390625 116.601562 27.1875 114.882812 28.308594 C 116.109375 30.078125 125.273438 30.421875 127.296875 30.46875 L 127.941406 30.550781 " fill-opacity="1" fill-rule="nonzero"/><path fill="#4071c0" d="M 97.210938 35.953125 L 97.050781 35.710938 C 98.230469 36.050781 104.546875 33.441406 103.664062 30.710938 C 101.996094 25.5625 88.53125 36.839844 97.210938 35.953125 " fill-opacity="1" fill-rule="nonzero"/><path fill="#4071c0" d="M 109.453125 25.488281 C 108.421875 22.972656 103.828125 25.527344 102.695312 26.515625 L 103.097656 26.84375 C 102.644531 28.15625 110.328125 27.617188 109.453125 25.488281 " fill-opacity="1" fill-rule="nonzero"/><path fill="#4071c0" d="M 102.9375 51.925781 L 102.941406 51.851562 L 102.9375 51.839844 L 102.9375 51.925781 " fill-opacity="1" fill-rule="nonzero"/><path fill="#4071c0" d="M 102.941406 51.851562 C 102.902344 52.632812 111.363281 52.859375 111.8125 52.589844 C 114.453125 51 103.246094 43.550781 102.941406 51.851562 " fill-opacity="1" fill-rule="nonzero"/><path fill="#4071c0" d="M 93.097656 29.175781 L 92.617188 29.097656 C 94.128906 29.304688 95.074219 28.738281 95.441406 27.402344 C 94.960938 27.039062 93.496094 26.644531 91.640625 26.339844 C 89.875 27.394531 88.121094 28.460938 86.394531 29.574219 C 89.554688 29.59375 92.65625 29.339844 93.097656 29.175781 " fill-opacity="1" fill-rule="nonzero"/><path fill="#4071c0" d="M 84.066406 40.46875 L 85.761719 41.117188 C 88.96875 40.15625 90.941406 31.859375 88.183594 32 C 87.6875 32.027344 85.679688 31.945312 82.921875 31.855469 C 78.714844 34.6875 74.632812 37.695312 70.675781 40.847656 C 75.296875 40.582031 81.480469 36.660156 84.066406 40.46875 " fill-opacity="1" fill-rule="nonzero"/><path fill="#4071c0" d="M 141.675781 84.667969 L 140.816406 85.207031 C 135.78125 86.574219 140.804688 80.675781 140.609375 80.042969 C 140.199219 78.710938 129.257812 89.941406 130.816406 90.464844 C 138.214844 92.972656 141.964844 90.261719 144.09375 84.511719 C 143.355469 83.761719 142.550781 83.8125 141.675781 84.667969 " fill-opacity="1" fill-rule="nonzero"/><path fill="#4071c0" d="M 62.882812 153.054688 L 64.507812 152.875 C 67.679688 153.558594 80.226562 161.199219 82.785156 158.335938 C 89.570312 150.726562 55.46875 150.324219 62.882812 153.054688 " fill-opacity="1" fill-rule="nonzero"/><path fill="#4071c0" d="M 84.898438 163.164062 C 86.160156 163.515625 95.902344 163.210938 96.082031 161.171875 C 96.980469 151.203125 77.757812 161.195312 84.898438 163.164062 " fill-opacity="1" fill-rule="nonzero"/></svg>